<?xml version="1.0" standalone="no"?>
<!DOCTYPE svg PUBLIC "-//W3C//DTD SVG 20010904//EN"
 "http://www.w3.org/TR/2001/REC-SVG-20010904/DTD/svg10.dtd">
<svg version="1.0" xmlns="http://www.w3.org/2000/svg"
 width="96.000000pt" height="96.000000pt" viewBox="0 0 96.000000 96.000000"
 preserveAspectRatio="xMidYMid meet">

<g transform="translate(0.000000,96.000000) scale(0.100000,-0.100000)"
fill="#000000" stroke="none">
<path d="M145 815 l-25 -24 0 -311 0 -311 25 -24 24 -25 311 0 311 0 24 25 25
24 0 311 0 311 -25 24 -24 25 -311 0 -311 0 -24 -25z m615 -335 l0 -280 -280
0 -280 0 0 120 0 120 132 0 132 0 -44 -45 -44 -45 27 -27 27 -28 93 93 92 92
-93 92 c-96 97 -107 101 -136 55 -9 -13 -2 -25 34 -62 l44 -45 -132 0 -132 0
0 120 0 120 280 0 280 0 0 -280z"/>
</g>
</svg>
