<?xml version="1.0" standalone="no"?>
<!DOCTYPE svg PUBLIC "-//W3C//DTD SVG 20010904//EN"
 "http://www.w3.org/TR/2001/REC-SVG-20010904/DTD/svg10.dtd">
<svg version="1.0" xmlns="http://www.w3.org/2000/svg"
 width="24.000000pt" height="24.000000pt" viewBox="0 0 24.000000 24.000000"
 preserveAspectRatio="xMidYMid meet">

<g transform="translate(0.000000,24.000000) scale(0.100000,-0.100000)"
fill="#000000" stroke="none">
<path d="M34 197 c-3 -8 -4 -47 -2 -88 l3 -74 85 0 85 0 0 85 0 85 -83 3 c-63
2 -84 0 -88 -11z m156 -77 l0 -70 -70 0 -70 0 0 30 c0 27 3 30 30 30 22 0 28
-4 24 -15 -9 -21 10 -19 31 5 17 19 17 21 0 40 -21 24 -40 26 -31 5 4 -11 -2
-15 -24 -15 -27 0 -30 3 -30 30 l0 30 70 0 70 0 0 -70z"/>
</g>
</svg>
