<?xml version="1.0" standalone="no"?>
<!DOCTYPE svg PUBLIC "-//W3C//DTD SVG 20010904//EN"
 "http://www.w3.org/TR/2001/REC-SVG-20010904/DTD/svg10.dtd">
<svg version="1.0" xmlns="http://www.w3.org/2000/svg"
 width="512.000000pt" height="512.000000pt" viewBox="0 0 512.000000 512.000000"
 preserveAspectRatio="xMidYMid meet">

<g transform="translate(0.000000,512.000000) scale(0.100000,-0.100000)"
fill="#000000" stroke="none">
<path d="M610 4859 c-72 -14 -167 -67 -225 -124 -138 -138 -171 -344 -85 -524
30 -61 106 -139 999 -1033 571 -571 986 -979 1016 -997 139 -88 320 -94 462
-17 36 20 327 306 1035 1014 1081 1083 1024 1019 1050 1170 50 293 -216 561
-512 515 -159 -25 -119 11 -1000 -869 l-795 -793 -795 794 c-697 697 -802 798
-855 824 -98 48 -191 60 -295 40z m215 -169 c36 -17 247 -222 872 -844 454
-451 830 -824 836 -828 42 -27 46 -24 892 821 573 572 844 836 875 852 64 34
196 34 257 1 54 -28 107 -81 135 -135 33 -61 33 -193 -1 -257 -16 -31 -316
-339 -984 -1008 -1069 -1070 -1015 -1022 -1147 -1022 -132 0 -78 -48 -1147
1022 -683 685 -967 976 -983 1007 -31 62 -37 143 -16 216 23 76 108 166 182
189 67 22 168 15 229 -14z"/>
<path d="M607 2979 c-221 -52 -377 -287 -339 -510 26 -153 -33 -87 1051 -1170
1084 -1084 1018 -1025 1172 -1051 54 -9 85 -9 140 0 152 26 88 -31 1162 1041
915 913 980 981 1013 1046 45 91 61 183 46 272 -43 259 -297 431 -551 372
-123 -28 -105 -12 -948 -853 l-793 -791 -792 791 c-844 841 -826 825 -949 853
-53 13 -160 12 -212 0z m3958 -146 c54 -28 110 -86 137 -142 32 -64 32 -176 0
-246 -19 -41 -191 -218 -995 -1022 -1078 -1079 -1010 -1018 -1147 -1018 -137
0 -69 -60 -1142 1013 -1073 1073 -1013 1005 -1013 1142 0 169 121 290 290 290
135 0 87 42 1005 -874 454 -453 833 -826 843 -829 9 -4 30 -2 45 4 15 5 403
385 862 843 715 714 841 836 880 850 62 22 182 16 235 -11z"/>
</g>
</svg>
