<?xml version="1.0" standalone="no"?>
<!DOCTYPE svg PUBLIC "-//W3C//DTD SVG 20010904//EN"
 "http://www.w3.org/TR/2001/REC-SVG-20010904/DTD/svg10.dtd">
<svg version="1.0" xmlns="http://www.w3.org/2000/svg"
 width="512.000000pt" height="512.000000pt" viewBox="0 0 512.000000 512.000000"
 preserveAspectRatio="xMidYMid meet">

<g transform="translate(0.000000,512.000000) scale(0.100000,-0.100000)"
fill="#000000" stroke="none">
<path d="M570 4876 c-241 -68 -386 -314 -325 -551 9 -32 29 -82 45 -109 40
-71 1998 -2026 2057 -2055 137 -68 300 -66 437 6 38 21 288 263 999 973 522
520 968 971 992 1003 67 89 88 153 89 272 0 81 -4 111 -23 157 -50 129 -165
237 -290 275 -124 39 -282 16 -383 -55 -24 -17 -394 -382 -823 -811 l-780
-781 -805 803 c-604 603 -818 810 -856 830 -102 54 -234 71 -334 43z"/>
<path d="M608 2979 c-119 -28 -247 -132 -299 -243 -63 -134 -61 -267 5 -401
33 -65 98 -133 1013 -1046 923 -921 982 -977 1042 -1003 93 -41 175 -53 262
-38 151 26 88 -30 1170 1051 1084 1083 1025 1017 1051 1170 39 230 -121 462
-353 512 -87 19 -196 6 -281 -32 -71 -32 -91 -50 -866 -823 l-792 -791 -793
791 c-843 841 -825 825 -948 853 -53 13 -160 12 -211 0z"/>
</g>
</svg>
