<?xml version="1.0" standalone="no"?>
<!DOCTYPE svg PUBLIC "-//W3C//DTD SVG 20010904//EN"
 "http://www.w3.org/TR/2001/REC-SVG-20010904/DTD/svg10.dtd">
<svg version="1.0" xmlns="http://www.w3.org/2000/svg"
 width="48.000000pt" height="48.000000pt" viewBox="0 0 48.000000 48.000000"
 preserveAspectRatio="xMidYMid meet">

<g transform="translate(0.000000,48.000000) scale(0.100000,-0.100000)"
fill="#000000" stroke="none">
<path d="M73 382 c-7 -5 19 -40 77 -102 l88 -95 47 45 c85 82 129 140 116 153
-8 8 -30 -7 -86 -63 l-75 -74 -73 72 c-77 77 -76 76 -94 64z"/>
<path d="M74 265 c-5 -12 17 -41 79 -103 l87 -87 90 90 c80 79 88 91 75 104
-13 14 -23 7 -90 -59 l-74 -74 -81 73 c-65 59 -81 69 -86 56z"/>
</g>
</svg>
