<?xml version="1.0" standalone="no"?>
<!DOCTYPE svg PUBLIC "-//W3C//DTD SVG 20010904//EN"
 "http://www.w3.org/TR/2001/REC-SVG-20010904/DTD/svg10.dtd">
<svg version="1.0" xmlns="http://www.w3.org/2000/svg"
 width="48.000000pt" height="48.000000pt" viewBox="0 0 48.000000 48.000000"
 preserveAspectRatio="xMidYMid meet">

<g transform="translate(0.000000,48.000000) scale(0.100000,-0.100000)"
fill="#000000" stroke="none">
<path d="M72 408 c-17 -17 -17 -319 0 -336 17 -17 319 -17 336 0 17 17 17 319
0 336 -17 17 -319 17 -336 0z m308 -168 l0 -140 -140 0 -140 0 0 60 0 60 67 0
66 0 -22 -23 c-18 -20 -19 -26 -8 -35 10 -9 23 -2 57 33 l44 45 -47 47 c-36
37 -49 45 -59 35 -9 -9 -7 -17 12 -37 l23 -25 -66 0 -67 0 0 60 0 60 140 0
140 0 0 -140z"/>
</g>
</svg>
