<?xml version="1.0" encoding="utf-8"?>
<!-- Uploaded to: SVG Repo, www.svgrepo.com, Generator: SVG Repo Mixer Tools -->
<svg width="800px" height="800px" viewBox="-42.82 0 332.558 332.558" xmlns="http://www.w3.org/2000/svg"><defs><style>.a{fill:#ffffff;}.b{fill:#ffda71;}.c{fill:#211715;}</style></defs><path class="a" d="M6.282,56.412V271.194c0,9.879-1.963,19.955,0,29.637,4.779,23.57,52.021,28.645,86.663,29.323,34.642-.679,81.523-6.79,86.657-29.323,2.195-9.632,0-19.758,0-29.637V57.984c0-1.221-.046-5.778-5.083-6.37"/><path class="b" d="M35.361,290.546c16.157,6.739,40.568,9.273,53.028,9.273,28.652,0,77.665-5.147,77.665-23.556,0-30.527.17-119.316.241-174.487l-.265.128c-17.723,8.933-39.447,14.049-73.7,14.049-23.281,0-53.4-2.54-72.807-12.081V274.448C19.518,281.413,26.077,286.674,35.361,290.546Z"/><path class="a" d="M180.28,272.087c3.147-2.872,4.316-5.814,8.329-7.246a46.7,46.7,0,0,1,8.879-2.236c10.954-1.584,20.4-6.6,28.551-14.093,13.215-15.818,17.159-37.447,18.135-60.061.952-22.05.409-44.625-7.932-65.059-2.643-6.475-7.617-13.009-13.76-16.35-5.952-3.236-13.1-2.937-19.824-3.726s-17.709-6.521-22.378-18.3l-.375,53.152c3-7.9,12.127-15.658,18.236-17.323a22.948,22.948,0,0,1,18.227,2.817,15.457,15.457,0,0,1,4.029,3.61c5.363,7.385,7.237,28.786,7.66,38.418.728,17.125-1.651,33.561-5.2,50.929-1.858,9.092-6.394,18.487-14.416,23.151-4.914,2.855-10.784,3.46-16.459,3.768a15.193,15.193,0,0,1-6.912-.738c-2.05-.892-4.5-2.917-5.167-5.05Z"/><path class="c" d="M3.882,56.412v196.05c0,6.945.146,13.908-.028,20.852-.169,6.733-1.054,13.448-.8,20.191.174,4.615.751,9.3,2.882,13.452a25.676,25.676,0,0,0,6.378,7.782c6.206,5.218,13.955,8.334,21.657,10.605a165.733,165.733,0,0,0,28.435,5.332c9.653,1.083,19.364,1.624,29.074,1.847a222.1,222.1,0,0,0,29.6-1.746,178.5,178.5,0,0,0,28.843-5.308c7.885-2.234,15.9-5.242,22.443-10.288a28.4,28.4,0,0,0,6.988-7.506c2.343-3.807,3.16-8.162,3.487-12.571.493-6.651-.42-13.294-.733-19.929-.321-6.818-.1-13.685-.1-20.509V71.372c0-4.661.24-9.393-.014-14.048-.222-4.059-2.628-7.426-6.831-8.025a2.482,2.482,0,0,0-2.952,1.677,2.418,2.418,0,0,0,1.676,2.952,5.028,5.028,0,0,1,2.24.771,2.277,2.277,0,0,1,.88,1.5,7.616,7.616,0,0,1,.179.846c-.093-.583,0,.209.011.357.037.8.011,1.612.011,2.415v195.95c0,6.724-.217,13.49.143,20.206.346,6.454,1.188,12.924.672,19.393-.327,4.088-1.117,7.41-3.281,10.615-3.563,5.276-10.06,8.965-16.2,11.49a121.352,121.352,0,0,1-26.252,6.957,253.778,253.778,0,0,1-29.065,2.97,239.776,239.776,0,0,1-28-.388,225.074,225.074,0,0,1-28.362-3.49c-8.254-1.621-16.632-3.781-24.144-7.661a35.513,35.513,0,0,1-8.408-5.767,22.8,22.8,0,0,1-2.816-3.212,20.768,20.768,0,0,1-1.18-1.907,14.627,14.627,0,0,1-.89-1.9c-1.815-4.928-1.739-10.485-1.535-15.657.26-6.615.8-13.177.8-19.8V56.412c0-3.088-4.8-3.093-4.8,0Z"/><path class="c" d="M163.926,66.8q0,18.93-.034,37.86-.036,26.37-.079,52.741-.043,27.858-.088,55.716-.035,23.425-.061,46.851c0,5.334.014,10.668-.01,16,0,.3,0,.6-.018.9-.009.143-.023.286-.035.429-.048.59.109-.54-.007.038a13.782,13.782,0,0,1-.487,1.794c-.213.617.137-.2-.162.365-.162.307-.317.615-.5.912-.153.253-.32.494-.484.739-.059.089-.432.569-.056.093q-.171.216-.349.425a16.855,16.855,0,0,1-1.459,1.505q-.369.337-.753.656c-.131.108-.264.215-.4.321s-.108.085.076-.059c-.112.085-.224.168-.337.25a34.87,34.87,0,0,1-4.231,2.571,58.309,58.309,0,0,1-10.588,4.038,126.871,126.871,0,0,1-13.046,3,226.738,226.738,0,0,1-28.164,3.087,194.47,194.47,0,0,1-22.955.074,178.538,178.538,0,0,1-23.891-3.133c-7.826-1.573-15.96-3.689-22.858-7.152a39.69,39.69,0,0,1-4.457-2.584,18.415,18.415,0,0,1-3.248-2.674q-.345-.346-.67-.711c-.127-.143-.25-.29-.375-.435-.008-.008-.4-.494-.167-.2s-.14-.193-.148-.2c-.1-.152-.212-.3-.314-.454-.2-.3-.388-.611-.562-.928-.144-.26-.272-.526-.4-.793-.262-.542.175.487-.033-.075-.041-.109-.083-.218-.122-.328a11.446,11.446,0,0,1-.509-2.032c.111.7-.011-.269-.018-.418-.025-.512-.013-1.025-.013-1.536V93.726c0-3.089-4.8-3.094-4.8,0V270.957a28.766,28.766,0,0,0,.367,6.583,16.083,16.083,0,0,0,4.583,7.627c5.287,5.178,12.7,8.042,19.637,10.208A152.011,152.011,0,0,0,67.453,300.7a164.671,164.671,0,0,0,21.76,1.517,270.465,270.465,0,0,0,27.763-1.518,162.121,162.121,0,0,0,28.17-5.123c6.8-1.982,14.43-4.687,19.372-10.027a14.093,14.093,0,0,0,3.864-8.079,67.28,67.28,0,0,0,.074-7.215q.011-21.181.048-42.362.039-27.661.085-55.322t.085-55.3q.031-21.642.05-43.285,0-3.593,0-7.184c0-3.089-4.8-3.094-4.8,0Z"/><path class="c" d="M19.119,106.337c9.153,4.313,19.04,6.841,28.978,8.565a243.172,243.172,0,0,0,32.339,3.228c20.527.778,41.592.063,61.615-4.886a120.494,120.494,0,0,0,25.19-9.268c2.761-1.387.333-5.53-2.423-4.145C150,107.28,133.48,110.99,116.9,112.516a278.875,278.875,0,0,1-32.538.938,249.808,249.808,0,0,1-30.956-2.527c-10.848-1.637-21.892-4.034-31.866-8.734a2.467,2.467,0,0,0-3.283.861,2.42,2.42,0,0,0,.861,3.283Z"/><path class="c" d="M177.965,85.656a33.171,33.171,0,0,0,14.121,16.387,29.174,29.174,0,0,0,7.96,3.239c3.693.852,7.578.82,11.335,1.21a25.247,25.247,0,0,1,11.565,3.63,28.936,28.936,0,0,1,8.291,8.8,51.244,51.244,0,0,1,5.106,11.736,108.144,108.144,0,0,1,3.37,13.386,158.362,158.362,0,0,1,2.4,27.7,268.164,268.164,0,0,1-1.045,27.35c-1.492,15.963-5.234,32.346-14.927,45.45a34.586,34.586,0,0,1-9,7.945A49.669,49.669,0,0,1,206.5,257.9c-4.047,1.449-8.166,1.994-12.343,2.877-4.314.912-8.637,2.147-11.73,5.454-1.293,1.383-2.452,2.869-3.84,4.163-2.265,2.111,1.135,5.5,3.394,3.394,1.43-1.333,2.616-2.875,3.959-4.289a10.321,10.321,0,0,1,4.6-2.781c4.323-1.406,8.824-1.779,13.2-2.937a56.7,56.7,0,0,0,22.14-11.925,38.858,38.858,0,0,0,7.634-9.722,74.317,74.317,0,0,0,5.392-11.042,104.889,104.889,0,0,0,6.085-24.471,233.791,233.791,0,0,0,1.871-27.084,197.248,197.248,0,0,0-1.219-28.287,112.771,112.771,0,0,0-6.662-27.433c-3.08-7.823-8.416-15.611-16.228-19.32-4.111-1.951-8.583-2.574-13.074-2.961-2.2-.19-4.4-.353-6.6-.568-.075-.008-.775-.1-.2-.018-.144-.021-.289-.041-.432-.068-.26-.048-.52-.094-.779-.149-.633-.135-1.258-.3-1.876-.489A27.92,27.92,0,0,1,185.231,89.3a27.328,27.328,0,0,1-2.637-4.917,2.475,2.475,0,0,0-2.952-1.676,2.417,2.417,0,0,0-1.677,2.952Z"/><path class="c" d="M182.219,138.808c2.082-5.33,6.615-9.971,11.33-13.081a18.249,18.249,0,0,1,7.244-3.013,20.474,20.474,0,0,1,9.336.678c3.045.927,6.372,2.639,8.314,5.25a16.636,16.636,0,0,1,2.308,4.749,80.216,80.216,0,0,1,3.394,15.424,164.827,164.827,0,0,1,1.164,35.406,224.429,224.429,0,0,1-3.083,23.068c-1.2,6.637-2.252,13.459-5.343,19.533-3.171,6.233-8.05,11.18-14.949,13a49.88,49.88,0,0,1-11.271,1.375,9.884,9.884,0,0,1-5.322-.944,6.725,6.725,0,0,1-3.122-3.141,2.461,2.461,0,0,0-2.952-1.677,2.423,2.423,0,0,0-1.677,2.953,12,12,0,0,0,7.869,7.092c3.662,1.064,7.927.482,11.654.048a33.912,33.912,0,0,0,11.42-3.081,25.678,25.678,0,0,0,7.907-6.319,41.768,41.768,0,0,0,8.618-18.325c1.8-8.359,3.225-16.832,4.239-25.323a172.116,172.116,0,0,0-.04-41.273,100.584,100.584,0,0,0-3.338-17.451,30.031,30.031,0,0,0-2.859-6.8,18.382,18.382,0,0,0-7.819-6.673c-6.433-3.11-14.281-3.616-20.83-.559A35.876,35.876,0,0,0,179.769,133.1a27.029,27.029,0,0,0-2.179,4.432,2.418,2.418,0,0,0,1.677,2.952,2.455,2.455,0,0,0,2.952-1.676Z"/><path class="a" d="M2.4,60.17c0,6.222,1.385,11.178,3.111,14,2.154,3.521,10.667,11.556,27.111,13.111,11.1,1.05,20,.667,31.556-6.222,10.11-6.027,18.335-13.972,28.786-13.721,44.016,1.06,79.348-8.772,80.769-17.39,3.556-21.556-10.543-47.54-80.842-47.54-23.27,0-52.758,3.712-71.158,19.91C3.983,37.944,2.4,51.1,2.4,60.17Z"/><path class="c" d="M0,60.17c.039,6.845,1.382,14,6.5,18.874,4.992,4.758,11.584,7.771,18.232,9.361A69.645,69.645,0,0,0,38.978,90.1,48.769,48.769,0,0,0,52.063,88.8c9.83-2.439,17.581-8.7,26.011-13.933,3.684-2.285,7.674-4.432,12.037-5a52.864,52.864,0,0,1,7.209-.063q4.025.033,8.051-.055a247.093,247.093,0,0,0,29.652-2.4,147.525,147.525,0,0,0,22.817-4.894c4.852-1.505,10-3.3,14.094-6.393a11.288,11.288,0,0,0,3.577-3.952,15.261,15.261,0,0,0,1.013-5.36,35.532,35.532,0,0,0-.753-10.6A35.175,35.175,0,0,0,162.862,16.52c-9.486-7.445-21.392-11.236-33.1-13.459A179.806,179.806,0,0,0,103.879.235a218.706,218.706,0,0,0-26.9.392C59.914,2.005,42.122,5.6,27.521,14.986A69.21,69.21,0,0,0,7.677,34.43,43.994,43.994,0,0,0,.494,52.8,54.138,54.138,0,0,0,0,60.17c0,3.089,4.8,3.094,4.8,0,0-1.109.025-2.218.087-3.326q.05-.864.129-1.726.042-.447.093-.891c.018-.151.036-.3.055-.452.033-.269-.045.287.023-.164a40.054,40.054,0,0,1,2.117-8.2c2.745-7.276,7.95-13.715,13.618-19.1,12.27-11.661,28.559-17.042,45-19.6a171.488,171.488,0,0,1,24-1.878,223.7,223.7,0,0,1,27.244,1.189c12.606,1.369,25.726,4.077,36.6,10.181a48.828,48.828,0,0,1,5.871,3.846c-.4-.308.183.148.3.24.2.164.406.329.607.5q.627.525,1.232,1.074,1.132,1.026,2.178,2.142c.665.711,1.292,1.452,1.9,2.21.21.261-.259-.342-.058-.077.069.091.139.182.207.274.134.183.269.365.4.549q.414.581.8,1.179a31.384,31.384,0,0,1,2.5,4.69c-.277-.643.192.5.278.731q.23.615.43,1.24.387,1.2.673,2.423c.188.807.335,1.619.466,2.437.016.1.029.2.044.3.048.319-.064-.515-.027-.194.023.2.049.394.07.592q.067.627.111,1.257a34.588,34.588,0,0,1-.01,4.861c-.028.389-.062.779-.1,1.167-.026.256-.185,1.453-.072.668-.053.367-.091.742-.17,1.1-.028.129-.068.255-.1.383-.115.528.08-.078.016,0a6.629,6.629,0,0,0-.451.772c-.237.413.084-.092.047-.051-.13.143-.249.3-.381.436a11.055,11.055,0,0,1-.8.773c-.151.133-.308.258-.462.386-.314.261.068-.053.113-.086-.132.1-.261.2-.395.289a33.214,33.214,0,0,1-5.731,3.112c-.326.143-.376.161-.4.17q-.448.183-.9.362-1,.395-2.022.757c-1.434.513-2.883.981-4.342,1.417-3.364,1.006-6.778,1.84-10.214,2.563A199.082,199.082,0,0,1,120,64.224q-7.419.584-14.864.734-3.907.083-7.817.05a57.527,57.527,0,0,0-7.276.073c-9.192,1.1-16.538,7.17-24.06,12.026a53.264,53.264,0,0,1-12.913,6.428A41.032,41.032,0,0,1,40.894,85.32c-8.138.026-16.593-1.053-23.918-4.8a35.611,35.611,0,0,1-3.994-2.372A20.372,20.372,0,0,1,10.266,76a24.1,24.1,0,0,1-2.074-2.166c-.066-.077-.127-.158-.191-.237-.2-.243.284.393.113.144-.088-.128-.183-.251-.27-.379a12.6,12.6,0,0,1-.905-1.59c-1.7-3.5-2.117-7.731-2.139-11.6C4.782,57.082-.018,57.076,0,60.17Z"/></svg>