<?xml version="1.0" standalone="no"?>
<!DOCTYPE svg PUBLIC "-//W3C//DTD SVG 20010904//EN"
 "http://www.w3.org/TR/2001/REC-SVG-20010904/DTD/svg10.dtd">
<svg version="1.0" xmlns="http://www.w3.org/2000/svg"
 width="512.000000pt" height="512.000000pt" viewBox="0 0 512.000000 512.000000"
 preserveAspectRatio="xMidYMid meet">

<g transform="translate(0.000000,512.000000) scale(0.100000,-0.100000)"
fill="#000000" stroke="none">
<path d="M1731 4799 c-240 -27 -467 -93 -687 -199 -992 -481 -1340 -1619 -768
-2512 l43 -66 -150 -469 c-82 -257 -149 -481 -149 -496 0 -73 75 -147 150
-147 31 0 215 89 725 350 l230 118 90 -35 c109 -42 279 -87 395 -104 83 -12
86 -14 147 -70 172 -159 313 -256 514 -354 507 -245 1103 -270 1644 -68 l81
30 449 -229 c291 -148 464 -232 491 -235 80 -10 164 63 164 143 0 15 -67 238
-149 496 l-150 469 43 67 c330 511 364 1151 90 1689 -268 524 -818 913 -1421
1003 -43 7 -83 15 -89 18 -7 4 -54 45 -106 92 -143 128 -266 212 -443 299
-215 107 -352 152 -580 191 -139 25 -430 34 -564 19z m407 -300 c123 -13 261
-43 377 -80 100 -33 300 -127 385 -182 l54 -35 -39 -7 c-273 -43 -442 -94
-645 -191 -911 -439 -1295 -1442 -887 -2317 25 -53 41 -97 36 -97 -6 0 -67 22
-136 50 -78 31 -141 50 -166 50 -32 0 -104 -33 -363 -165 -178 -91 -325 -165
-327 -165 -3 0 42 145 100 323 57 177 104 340 105 362 1 47 -6 63 -84 178
-107 157 -180 326 -220 510 -29 135 -31 396 -5 530 119 596 612 1070 1253
1206 186 40 380 50 562 30z m1220 -600 c223 -24 404 -78 607 -179 436 -217
742 -607 832 -1059 24 -119 24 -384 0 -504 -39 -194 -130 -405 -244 -563 -31
-43 -60 -94 -64 -112 -9 -42 -4 -61 114 -429 52 -161 93 -293 91 -293 -2 0
-149 74 -327 165 -263 134 -331 165 -365 165 -26 0 -82 -17 -149 -44 -528
-216 -1130 -170 -1608 124 -163 100 -335 258 -452 417 -115 155 -211 374 -250
570 -24 122 -24 384 0 506 106 530 514 974 1062 1155 239 79 508 108 753 81z"/>
<path d="M2488 2539 c-43 -22 -78 -81 -78 -129 0 -50 35 -107 80 -130 75 -38
157 -14 198 58 27 49 28 91 2 142 -37 73 -127 99 -202 59z"/>
<path d="M3088 2539 c-43 -22 -78 -81 -78 -129 0 -50 35 -107 80 -130 75 -38
157 -14 198 58 27 49 28 91 2 142 -37 73 -127 99 -202 59z"/>
<path d="M3688 2539 c-43 -22 -78 -81 -78 -129 0 -50 35 -107 80 -130 49 -25
90 -25 138 -1 43 22 82 84 82 131 0 47 -39 109 -82 131 -47 24 -93 24 -140 -2z"/>
</g>
</svg>
