<?xml version="1.0" standalone="no"?>
<!DOCTYPE svg PUBLIC "-//W3C//DTD SVG 20010904//EN"
 "http://www.w3.org/TR/2001/REC-SVG-20010904/DTD/svg10.dtd">
<svg version="1.0" xmlns="http://www.w3.org/2000/svg"
 width="512.000000pt" height="512.000000pt" viewBox="0 0 512.000000 512.000000"
 preserveAspectRatio="xMidYMid meet">

<g transform="translate(0.000000,512.000000) scale(0.100000,-0.100000)"
fill="#000000" stroke="none">
<path d="M1760 5109 c-499 -56 -975 -309 -1291 -687 -318 -380 -484 -851 -465
-1317 6 -164 30 -285 110 -565 75 -264 85 -310 92 -420 13 -193 -29 -380 -128
-576 -55 -111 -60 -126 -56 -169 3 -26 14 -59 25 -74 38 -52 203 -124 355
-155 89 -18 267 -21 354 -5 143 25 302 90 405 164 l46 33 129 -43 c497 -166
1014 -129 1488 107 975 486 1379 1626 916 2586 -301 624 -890 1043 -1575 1122
-104 11 -297 11 -405 -1z m435 -310 c275 -36 572 -164 798 -344 614 -489 806
-1311 471 -2012 -148 -310 -443 -607 -763 -767 -123 -62 -258 -110 -396 -142
-100 -22 -151 -28 -302 -32 -266 -7 -433 23 -672 118 -68 28 -134 50 -148 50
-37 0 -83 -24 -143 -74 -148 -124 -353 -183 -541 -157 -47 7 -91 16 -98 20
-10 7 -4 31 24 107 21 55 49 153 62 219 23 109 24 136 20 300 -5 200 -9 219
-111 573 -73 250 -88 336 -88 502 0 269 51 487 173 733 254 514 765 862 1343
917 97 9 256 4 371 -11z"/>
<path d="M1025 3381 c-51 -13 -92 -39 -128 -81 -94 -110 -67 -278 57 -355 44
-27 58 -30 126 -30 68 0 82 3 126 30 192 119 124 416 -102 439 -27 3 -62 1
-79 -3z"/>
<path d="M1901 3378 c-62 -18 -118 -64 -146 -123 -24 -47 -27 -64 -23 -124 3
-58 9 -78 34 -113 48 -69 103 -101 178 -106 79 -5 127 10 178 56 75 68 100
154 73 247 -36 125 -170 199 -294 163z"/>
<path d="M2777 3374 c-135 -43 -203 -206 -138 -332 76 -147 265 -178 381 -62
50 49 70 100 70 174 0 156 -161 269 -313 220z"/>
<path d="M4484 3331 c-59 -27 -88 -77 -82 -144 4 -46 12 -63 65 -132 255 -336
372 -726 342 -1142 -12 -171 -32 -265 -104 -478 -78 -233 -96 -327 -97 -510 0
-188 27 -334 93 -503 16 -40 29 -76 29 -81 0 -19 -121 -33 -237 -28 -179 7
-291 54 -461 192 -61 49 -101 47 -239 -9 -119 -49 -212 -76 -348 -103 -125
-24 -441 -25 -574 0 -278 52 -516 156 -738 324 -115 86 -145 99 -204 83 -100
-27 -142 -132 -90 -228 27 -51 254 -209 418 -291 291 -146 570 -211 904 -212
240 0 453 36 663 112 l84 30 72 -46 c302 -196 688 -217 1000 -54 87 46 112 74
118 138 4 42 -3 61 -62 181 -147 301 -164 561 -55 870 105 295 134 456 133
735 -1 277 -40 489 -135 729 -95 239 -277 521 -365 566 -50 25 -77 25 -130 1z"/>
</g>
</svg>
