<?xml version="1.0" standalone="no"?>
<!DOCTYPE svg PUBLIC "-//W3C//DTD SVG 20010904//EN"
 "http://www.w3.org/TR/2001/REC-SVG-20010904/DTD/svg10.dtd">
<svg version="1.0" xmlns="http://www.w3.org/2000/svg"
 width="512.000000pt" height="512.000000pt" viewBox="0 0 512.000000 512.000000"
 preserveAspectRatio="xMidYMid meet">

<g transform="translate(0.000000,512.000000) scale(0.100000,-0.100000)"
fill="#000000" stroke="none">
<path d="M1198 4769 c-301 -34 -554 -253 -634 -549 -24 -88 -24 -271 -1 -360
9 -36 38 -107 63 -159 82 -167 240 -302 429 -368 73 -25 93 -27 225 -28 137 0
150 2 233 32 148 52 270 139 323 230 15 27 49 76 75 110 100 131 134 351 84
545 -92 352 -436 589 -797 547z"/>
<path d="M3758 4769 c-300 -34 -559 -257 -632 -546 -51 -196 -17 -415 83 -546
26 -34 60 -83 75 -109 34 -58 99 -117 186 -168 240 -143 559 -131 787 29 144
101 256 262 300 431 23 88 23 273 -1 358 -98 360 -436 593 -798 551z"/>
<path d="M2419 3876 c-148 -31 -270 -98 -379 -206 -224 -225 -280 -546 -146
-835 90 -193 273 -344 486 -401 88 -24 272 -24 360 0 261 69 464 272 536 536
24 87 24 271 1 360 -39 147 -136 299 -252 393 -70 57 -195 120 -280 143 -84
22 -245 27 -326 10z"/>
<path d="M1108 3185 c-396 -67 -718 -362 -831 -762 -21 -76 -22 -96 -25 -685
l-3 -608 591 0 590 0 0 129 c0 330 110 601 336 825 132 131 267 211 474 283 9
3 -4 13 -37 28 -166 74 -325 236 -405 413 -35 77 -68 200 -68 252 0 35 -3 39
-47 58 -177 75 -383 99 -575 67z"/>
<path d="M3685 3189 c-68 -10 -178 -41 -247 -71 -45 -19 -48 -23 -48 -58 0
-52 -33 -175 -68 -252 -80 -177 -234 -334 -404 -413 -31 -14 -46 -26 -37 -29
189 -61 343 -153 473 -283 226 -225 336 -494 336 -824 l0 -129 590 0 591 0 -3
607 c-3 590 -4 610 -25 686 -98 345 -346 610 -678 724 -139 47 -328 64 -480
42z"/>
<path d="M2384 2300 c-79 -14 -212 -59 -284 -95 -261 -133 -447 -357 -537
-650 l-27 -90 -4 -607 -3 -608 1031 0 1031 0 -3 608 -4 607 -27 90 c-109 360
-366 616 -722 721 -77 22 -113 27 -245 30 -85 1 -178 -1 -206 -6z"/>
</g>
</svg>
