<?xml version="1.0" standalone="no"?>
<!DOCTYPE svg PUBLIC "-//W3C//DTD SVG 20010904//EN"
 "http://www.w3.org/TR/2001/REC-SVG-20010904/DTD/svg10.dtd">
<svg version="1.0" xmlns="http://www.w3.org/2000/svg"
 width="512.000000pt" height="512.000000pt" viewBox="0 0 512.000000 512.000000"
 preserveAspectRatio="xMidYMid meet">

<g transform="translate(0.000000,512.000000) scale(0.100000,-0.100000)"
fill="#000000" stroke="none">
<path d="M560 4947 c-49 -16 -133 -102 -148 -153 -18 -60 -18 -3928 0 -3988
16 -55 99 -138 154 -154 31 -9 232 -12 793 -12 l752 0 24 25 c33 32 33 78 0
110 l-24 25 -751 0 -751 0 -24 25 -25 24 0 1951 0 1951 25 24 24 25 1176 0
1175 0 0 -296 c0 -204 4 -310 12 -338 16 -55 99 -138 154 -154 28 -8 134 -12
338 -12 l296 0 0 -575 0 -576 25 -24 c32 -33 78 -33 110 0 l25 24 0 633 0 633
-423 422 -422 423 -1240 -1 c-874 -1 -1250 -4 -1275 -12z m2825 -527 l260
-260 -238 0 -238 0 -24 25 -25 24 0 236 c0 129 1 235 3 235 1 0 119 -117 262
-260z"/>
<path d="M985 3335 c-16 -15 -25 -36 -25 -55 0 -19 9 -40 25 -55 l24 -25 1151
0 1151 0 24 25 c16 15 25 36 25 55 0 19 -9 40 -25 55 l-24 25 -1151 0 -1151 0
-24 -25z"/>
<path d="M3300 2713 c-187 -20 -408 -101 -565 -206 -182 -122 -343 -304 -437
-492 -241 -480 -154 -1074 212 -1451 246 -253 529 -383 870 -400 363 -19 699
113 961 375 155 154 249 306 314 507 220 669 -145 1385 -818 1609 -160 53
-371 76 -537 58z m285 -163 c250 -36 469 -145 645 -320 421 -421 439 -1082 43
-1537 -115 -132 -311 -260 -484 -316 -357 -117 -756 -44 -1049 191 -472 377
-556 1064 -191 1550 238 315 650 487 1036 432z"/>
<path d="M3385 2455 c-24 -23 -25 -31 -25 -135 0 -104 1 -112 25 -135 15 -16
36 -25 55 -25 19 0 40 9 55 25 24 23 25 31 25 135 0 104 -1 112 -25 135 -15
16 -36 25 -55 25 -19 0 -40 -9 -55 -25z"/>
<path d="M3703 1818 l-263 -262 -143 142 c-94 93 -151 142 -165 142 -56 0
-101 -52 -89 -102 4 -13 87 -103 185 -200 161 -161 182 -178 212 -178 31 0 59
24 331 297 174 173 300 307 304 321 13 52 -30 102 -88 102 -14 0 -103 -81
-284 -262z"/>
<path d="M2425 1495 c-16 -15 -25 -36 -25 -55 0 -19 9 -40 25 -55 23 -24 31
-25 135 -25 104 0 112 1 135 25 16 15 25 36 25 55 0 19 -9 40 -25 55 -23 24
-31 25 -135 25 -104 0 -112 -1 -135 -25z"/>
<path d="M4185 1495 c-16 -15 -25 -36 -25 -55 0 -19 9 -40 25 -55 23 -24 31
-25 135 -25 104 0 112 1 135 25 16 15 25 36 25 55 0 19 -9 40 -25 55 -23 24
-31 25 -135 25 -104 0 -112 -1 -135 -25z"/>
<path d="M3385 695 c-24 -23 -25 -31 -25 -135 0 -104 1 -112 25 -135 32 -33
78 -33 110 0 24 23 25 31 25 135 0 104 -1 112 -25 135 -15 16 -36 25 -55 25
-19 0 -40 -9 -55 -25z"/>
<path d="M985 2615 c-16 -15 -25 -36 -25 -55 0 -19 9 -40 25 -55 l24 -25 711
0 711 0 24 25 c16 15 25 36 25 55 0 19 -9 40 -25 55 l-24 25 -711 0 -711 0
-24 -25z"/>
<path d="M985 1895 c-16 -15 -25 -36 -25 -55 0 -19 9 -40 25 -55 l24 -25 471
0 471 0 24 25 c33 32 33 78 0 110 l-24 25 -471 0 -471 0 -24 -25z"/>
</g>
</svg>
