<?xml version="1.0" standalone="no"?>
<!DOCTYPE svg PUBLIC "-//W3C//DTD SVG 20010904//EN"
 "http://www.w3.org/TR/2001/REC-SVG-20010904/DTD/svg10.dtd">
<svg version="1.0" xmlns="http://www.w3.org/2000/svg"
 width="512.000000pt" height="512.000000pt" viewBox="0 0 512.000000 512.000000"
 preserveAspectRatio="xMidYMid meet">

<g transform="translate(0.000000,512.000000) scale(0.100000,-0.100000)"
fill="#000000" stroke="none">
<path d="M1097 4995 c-371 -71 -658 -362 -723 -737 -59 -337 94 -696 378 -890
l61 -41 -89 -46 c-133 -69 -209 -124 -310 -225 -164 -165 -270 -353 -327 -586
-20 -81 -21 -117 -24 -738 l-4 -653 34 -34 35 -35 616 0 616 0 0 -410 c0 -273
4 -417 11 -433 6 -13 23 -31 39 -40 26 -16 122 -17 1155 -17 l1127 0 34 34 34
34 0 416 0 416 616 0 616 0 35 35 34 34 -4 653 c-3 565 -6 662 -20 721 -61
248 -162 433 -331 603 -101 100 -176 156 -310 225 l-89 46 61 41 c178 121 315
321 369 539 23 93 23 313 0 406 -83 335 -338 590 -674 674 -103 26 -323 23
-428 -6 -317 -86 -563 -332 -646 -646 -12 -48 -23 -127 -26 -198 -5 -103 -8
-117 -22 -112 -200 82 -352 102 -535 70 -72 -13 -134 -31 -227 -69 -14 -6 -17
8 -22 111 -3 68 -14 152 -27 198 -81 314 -331 564 -645 645 -106 28 -283 35
-388 15z m301 -200 c46 -9 115 -34 172 -62 79 -38 109 -60 181 -132 72 -72 94
-102 132 -181 73 -150 93 -287 62 -444 -16 -87 -46 -160 -79 -196 -13 -14 -44
-57 -69 -96 -52 -81 -97 -125 -182 -176 -198 -120 -448 -129 -665 -22 -79 39
-110 62 -181 133 -72 72 -94 102 -132 181 -102 209 -102 411 0 620 38 79 60
109 132 181 72 72 102 94 181 132 151 74 291 93 448 62z m2600 0 c46 -9 115
-34 172 -62 79 -38 109 -60 181 -132 72 -72 94 -102 132 -181 102 -209 102
-411 0 -620 -38 -79 -60 -109 -132 -181 -72 -72 -102 -94 -181 -132 -220 -107
-466 -100 -665 21 -85 51 -130 95 -182 176 -25 39 -56 82 -69 96 -33 36 -63
109 -79 196 -31 158 -11 296 61 444 39 79 62 110 133 181 72 72 102 94 181
132 151 74 291 93 448 62z m-1300 -900 c46 -9 115 -34 172 -62 79 -38 109 -60
181 -132 72 -72 94 -102 132 -181 102 -209 102 -409 0 -620 -38 -80 -59 -109
-132 -181 -72 -72 -102 -94 -181 -132 -209 -102 -411 -102 -620 0 -79 38 -109
60 -181 132 -72 72 -94 102 -132 181 -102 209 -102 414 -1 620 39 79 62 110
133 181 72 72 102 94 181 132 151 74 291 93 448 62z m-1187 -718 c129 -34 159
-50 159 -86 0 -47 37 -176 73 -254 69 -148 179 -280 307 -367 l63 -43 -89 -46
c-133 -69 -209 -124 -310 -225 -223 -223 -336 -484 -351 -808 l-6 -138 -548 0
-549 0 0 539 c0 437 3 555 15 626 73 420 391 740 812 820 115 21 301 13 424
-18z m2514 18 c210 -37 392 -131 540 -280 123 -122 222 -295 267 -465 21 -82
22 -103 25 -662 l4 -578 -549 0 -549 0 -6 138 c-15 324 -128 585 -351 808
-101 101 -177 156 -310 225 l-89 46 64 43 c126 86 238 221 306 367 36 78 73
207 73 254 0 33 23 48 115 74 155 46 312 56 460 30z m-1230 -914 c363 -90 639
-366 738 -736 20 -76 21 -107 24 -657 l4 -578 -1000 0 -1001 0 0 539 c0 437 3
555 15 626 73 420 391 740 812 820 104 20 301 13 408 -14z"/>
</g>
</svg>
