<?xml version="1.0" standalone="no"?>
<!DOCTYPE svg PUBLIC "-//W3C//DTD SVG 20010904//EN"
 "http://www.w3.org/TR/2001/REC-SVG-20010904/DTD/svg10.dtd">
<svg version="1.0" xmlns="http://www.w3.org/2000/svg"
 width="512.000000pt" height="512.000000pt" viewBox="0 0 512.000000 512.000000"
 preserveAspectRatio="xMidYMid meet">

<g transform="translate(0.000000,512.000000) scale(0.100000,-0.100000)"
fill="#000000" stroke="none">
<path d="M2315 4074 c-614 -63 -1146 -277 -1602 -645 -183 -148 -408 -387
-550 -584 -81 -114 -163 -256 -163 -284 0 -49 149 -278 296 -456 100 -121 297
-317 417 -414 418 -337 900 -546 1452 -628 185 -27 630 -25 820 5 511 80 945
263 1354 569 138 105 372 329 486 468 147 179 295 407 295 455 0 48 -148 276
-295 455 -115 140 -348 363 -490 470 -329 248 -677 414 -1070 511 -240 59
-378 75 -660 79 -137 2 -268 1 -290 -1z m472 -215 c816 -68 1565 -505 2024
-1181 l80 -118 -80 -117 c-391 -577 -997 -984 -1681 -1131 -206 -45 -324 -56
-575 -56 -195 1 -266 5 -380 22 -606 94 -1108 345 -1531 767 -161 160 -245
260 -350 417 l-65 98 62 93 c209 311 509 604 824 801 493 310 1089 454 1672
405z"/>
<path d="M2428 3510 c-213 -34 -396 -126 -544 -274 -124 -124 -214 -283 -256
-452 -31 -125 -31 -323 0 -448 90 -361 375 -635 747 -717 97 -21 303 -17 409
9 361 89 635 375 717 747 21 97 17 303 -9 409 -42 168 -132 327 -256 452 -123
123 -284 214 -447 254 -96 23 -277 33 -361 20z m316 -231 c328 -79 557 -375
557 -719 0 -415 -326 -741 -741 -741 -416 0 -741 325 -741 741 0 434 357 769
791 742 30 -2 91 -12 134 -23z"/>
</g>
</svg>
