<?xml version="1.0" standalone="no"?>
<!DOCTYPE svg PUBLIC "-//W3C//DTD SVG 20010904//EN"
 "http://www.w3.org/TR/2001/REC-SVG-20010904/DTD/svg10.dtd">
<svg version="1.0" xmlns="http://www.w3.org/2000/svg"
 width="96.000000pt" height="96.000000pt" viewBox="0 0 96.000000 96.000000"
 preserveAspectRatio="xMidYMid meet">

<g transform="translate(0.000000,96.000000) scale(0.100000,-0.100000)"
fill="#000000" stroke="none">
<path d="M65 815 l-25 -24 0 -231 0 -231 25 -24 24 -25 291 0 291 0 24 25 25
24 0 231 0 231 -25 24 -24 25 -291 0 -291 0 -24 -25z m575 -255 l0 -200 -260
0 -260 0 0 200 0 200 260 0 260 0 0 -200z"/>
<path d="M406 555 c-27 -36 -52 -65 -56 -65 -5 0 -23 18 -40 40 -17 22 -35 40
-40 40 -4 0 -31 -29 -59 -65 l-51 -65 220 0 220 0 -66 90 c-36 50 -69 90 -72
90 -4 0 -29 -30 -56 -65z"/>
<path d="M800 440 l0 -240 -300 0 -300 0 0 -40 0 -40 315 0 316 0 24 25 25 24
0 256 0 255 -40 0 -40 0 0 -240z"/>
</g>
</svg>
