<?xml version="1.0" standalone="no"?>
<!DOCTYPE svg PUBLIC "-//W3C//DTD SVG 20010904//EN"
 "http://www.w3.org/TR/2001/REC-SVG-20010904/DTD/svg10.dtd">
<svg version="1.0" xmlns="http://www.w3.org/2000/svg"
 width="512.000000pt" height="512.000000pt" viewBox="0 0 512.000000 512.000000"
 preserveAspectRatio="xMidYMid meet">

<g transform="translate(0.000000,512.000000) scale(0.100000,-0.100000)"
fill="#000000" stroke="none">
<path d="M2472 5083 c-290 -172 -559 -472 -708 -789 -106 -227 -174 -520 -174
-754 0 -63 -2 -71 -17 -66 -10 3 -68 10 -130 16 -198 20 -425 -15 -619 -94
-296 -121 -559 -370 -694 -659 -52 -110 -57 -137 -34 -175 29 -50 97 -68 140
-37 12 8 46 65 77 127 177 362 513 597 912 638 107 11 264 2 345 -20 l36 -10
18 -96 c82 -442 339 -849 709 -1127 59 -44 107 -85 107 -91 0 -32 -48 -174
-86 -255 -165 -352 -492 -594 -871 -646 l-53 -7 0 194 0 193 239 239 c157 157
241 248 244 265 13 65 -56 132 -119 117 -19 -5 -89 -67 -196 -174 l-168 -166
0 388 0 388 -35 35 c-32 32 -40 35 -73 30 -24 -4 -47 -17 -64 -37 l-28 -30 0
-172 0 -173 -110 110 c-108 108 -111 110 -156 110 -60 0 -94 -36 -94 -97 0
-41 5 -47 180 -223 l180 -181 0 -407 0 -408 -48 7 c-178 25 -388 111 -526 216
-152 115 -276 268 -356 441 -44 95 -67 117 -123 117 -43 0 -82 -31 -93 -74 -8
-35 25 -122 89 -234 203 -356 550 -596 955 -660 l102 -16 0 -318 0 -318 -575
0 c-479 0 -581 -2 -604 -14 -66 -35 -66 -137 0 -172 42 -21 4976 -21 5018 0
66 35 66 137 0 172 -23 12 -129 14 -634 14 l-605 0 0 316 c0 297 1 316 18 309
66 -28 175 -56 254 -66 393 -48 789 183 943 549 56 134 70 210 69 367 -1 165
-20 246 -87 389 -72 151 -185 280 -322 368 l-59 39 2 112 c4 126 -12 224 -53
332 -95 253 -321 456 -590 530 -96 26 -283 30 -387 7 l-88 -18 0 88 c0 495
-217 991 -581 1332 -142 132 -338 266 -389 266 -14 0 -53 -17 -88 -37z m154
-224 c150 -105 270 -223 386 -379 213 -287 331 -671 316 -1028 l-6 -116 -33
-25 c-68 -49 -198 -190 -238 -258 -90 -151 -127 -303 -119 -492 l5 -120 -96
-94 c-53 -51 -115 -108 -138 -126 l-43 -33 0 584 0 583 156 155 c85 85 162
168 170 183 32 60 -21 137 -93 137 -32 0 -47 -11 -134 -97 l-99 -97 0 223 c0
241 -5 266 -55 289 -51 23 -107 7 -131 -39 -11 -23 -14 -109 -14 -486 l0 -457
-138 137 c-128 127 -141 137 -176 137 -48 0 -72 -13 -92 -52 -31 -60 -20 -77
201 -298 l205 -205 0 -348 0 -349 -42 34 c-304 238 -523 599 -598 985 -122
628 145 1282 674 1652 33 22 62 41 66 41 4 0 33 -19 66 -41z m1372 -1622 c106
-37 176 -82 262 -167 158 -158 219 -363 178 -601 -16 -93 -7 -109 100 -170
148 -85 236 -176 306 -315 55 -111 70 -181 70 -324 0 -143 -21 -225 -89 -347
-46 -82 -175 -213 -257 -261 -130 -76 -308 -114 -447 -94 -88 13 -190 44 -247
76 l-39 22 -3 299 -2 300 204 205 c132 132 207 215 212 233 14 60 -37 117
-107 117 -28 0 -51 -18 -171 -137 l-138 -137 0 107 c0 132 -13 171 -65 193
-29 12 -44 13 -71 4 -64 -21 -64 -21 -64 -367 0 -172 -3 -313 -7 -313 -4 0
-62 54 -128 120 -120 118 -122 120 -168 120 -38 0 -49 -5 -71 -31 -17 -20 -26
-42 -26 -66 0 -34 14 -51 200 -238 l201 -202 -3 -103 -3 -103 -59 -33 c-126
-69 -329 -90 -463 -47 -211 69 -369 235 -423 449 -52 202 5 415 151 569 78 82
146 125 255 163 122 43 139 82 90 204 -133 333 22 708 352 855 92 40 165 53
287 49 86 -3 126 -9 183 -29z m-1538 -2412 l0 -625 -515 0 -515 0 0 318 0 318
105 16 c337 54 652 242 855 512 36 47 66 86 67 86 2 0 3 -281 3 -625z m400 44
c152 -90 344 -131 512 -110 51 7 125 23 166 37 40 13 77 24 82 24 6 0 10 -114
10 -310 l0 -310 -485 0 -485 0 0 416 0 416 65 -60 c35 -34 96 -80 135 -103z"/>
<path d="M4395 5105 c-219 -48 -393 -219 -450 -440 -20 -77 -19 -211 1 -289
53 -205 224 -375 434 -431 72 -19 210 -19 285 0 253 65 434 281 452 539 12
172 -49 330 -175 456 -149 149 -348 209 -547 165z m265 -209 c60 -21 136 -80
182 -141 121 -160 95 -389 -60 -532 -15 -13 -56 -39 -92 -56 -61 -30 -72 -32
-170 -32 -96 0 -110 3 -165 30 -77 38 -153 114 -191 190 -26 55 -29 69 -29
165 0 94 3 111 27 163 72 154 216 242 378 233 41 -3 95 -12 120 -20z"/>
<path d="M63 2255 c-99 -43 -71 -185 36 -185 96 0 138 124 59 173 -37 24 -61
27 -95 12z"/>
</g>
</svg>
