<svg xmlns="http://www.w3.org/2000/svg" width="24" height="24" viewBox="0 0 24 24"><defs><linearGradient id="a" x1="100%" x2="29.895%" y1="0%" y2="69.202%"><stop offset="0%" stop-color="#FFB301"/><stop offset="100%" stop-color="#FFC533"/></linearGradient><linearGradient id="b" x1="50%" x2="50%" y1="0%" y2="100%"><stop offset="0%" stop-color="#9FC7FF"/><stop offset="100%" stop-color="#9BC1F5"/></linearGradient><radialGradient id="c" cx="55.585%" cy="10.083%" r="58.215%" fx="55.585%" fy="10.083%" gradientTransform="matrix(0 -1 .719 0 .483 .657)"><stop offset="0%" stop-color="#486DA8" stop-opacity=".4"/><stop offset="100%" stop-color="#486DA8" stop-opacity="0"/></radialGradient></defs><g fill="none"><circle cx="16" cy="8" r="4" fill="url(#a)"/><path fill="#FFB300" fill-rule="nonzero" d="M15.48.73l.26 1.477c.174.985-1.304 1.245-1.477.26l-.26-1.477c-.174-.985 1.304-1.245 1.477-.26zm5.293 1.761l-.86 1.229c-.574.819-1.802-.041-1.229-.86l.86-1.229c.574-.819 1.802.041 1.229.86zm-10.281.736l1.229.86c.819.574-.041 1.802-.86 1.229l-1.229-.86c-.819-.574.041-1.802.86-1.229zm10.649 7.456l1.229.86c.819.574-.041 1.802-.86 1.229l-1.229-.86c-.819-.574.041-1.802.86-1.229zm2.13-3.204l-1.477.26c-.985.174-1.245-1.304-.26-1.477l1.477-.26c.985-.174 1.245 1.304.26 1.477z"/><path fill="#66AFEB" fill-rule="nonzero" d="M7.109 19.463l-1.05 2.499c-.16.382.019.822.401.982.382.16.822-.019.982-.401l1.05-2.499c.16-.382-.019-.822-.401-.982-.382-.16-.822.019-.982.401zm5-1l-1.05 2.499c-.16.382.019.822.401.982.382.16.822-.019.982-.401l1.05-2.499c.16-.382-.019-.822-.401-.982-.382-.16-.822.019-.982.401z"/><path fill="url(#b)" d="M6 17c-2.209 0-4-1.791-4-4s1.791-4 4-4c.417 0 .818.064 1.196.182.563-1.842 2.277-3.182 4.304-3.182 2.485 0 4.5 2.015 4.5 4.5 0 .235-.018.465-.053.69.328-.123.682-.19 1.053-.19 1.657 0 3 1.343 3 3s-1.343 3-3 3h-11z"/><path fill="url(#c)" d="M7 10.5c0 2.485 2.015 4.5 4.5 4.5 2.251 0 4.115-1.652 4.447-3.81.328-.123.682-.19 1.053-.19 1.657 0 3 1.343 3 3s-1.343 3-3 3h-11c-2.209 0-4-1.791-4-4s1.791-4 4-4c.417 0 .818.064 1.196.182-.128.417-.196.859-.196 1.318z"/></g></svg>