<svg width="32" height="32" viewBox="0 0 32 32" fill="none" xmlns="http://www.w3.org/2000/svg">
<path fill-rule="evenodd" clip-rule="evenodd" d="M17.4752 9.65106C18.4464 8.63377 19.8158 8 21.3333 8C24.2788 8 26.6666 10.3878 26.6666 13.3333C26.6666 14.7517 26.113 16.0408 25.2099 16.9962C24.4631 16.4819 23.5868 16.1421 22.6399 16.0357C22.3821 13.0101 20.2871 10.5084 17.4752 9.65106H17.4752Z" fill="white"/>
<path d="M20.6396 3.63983L20.9869 5.60945C21.2184 6.92252 19.2488 7.26982 19.0172 5.95674L18.6699 3.98713C18.4384 2.67405 20.408 2.32676 20.6396 3.63983Z" fill="white"/>
<path d="M27.697 5.98845L26.5499 7.62675C25.7851 8.71896 24.1468 7.5718 24.9116 6.4796L26.0587 4.8413C26.8235 3.74909 28.4618 4.89625 27.697 5.98845Z" fill="white"/>
<path d="M13.9884 6.96964L15.6268 8.11679C16.719 8.88156 15.5718 10.5199 14.4796 9.7551L12.8413 8.60794C11.7491 7.84317 12.8962 6.20487 13.9884 6.96964Z" fill="white"/>
<path d="M28.1871 16.9115L29.8254 18.0587C30.9176 18.8235 29.7704 20.4618 28.6782 19.697L27.0399 18.5498C25.9477 17.7851 27.0949 16.1468 28.1871 16.9115Z" fill="white"/>
<path d="M31.0268 12.6395L29.0572 12.9868C27.7441 13.2183 27.3968 11.2487 28.7099 11.0172L30.6795 10.6699C31.9926 10.4384 32.3399 12.408 31.0268 12.6395Z" fill="white"/>
<path fill-rule="evenodd" clip-rule="evenodd" d="M8 25.3334C5.23858 25.3334 3 23.0948 3 20.3334C3 17.572 5.23858 15.3334 8 15.3334C8.73949 15.3334 9.44149 15.4939 10.073 15.782C10.4945 13.2575 12.6892 11.3334 15.3333 11.3334C18.2789 11.3334 20.6667 13.7212 20.6667 16.6667C20.6667 17.2632 20.5687 17.8369 20.3881 18.3724C20.8746 18.1339 21.4216 18 22 18C24.025 18 25.6667 19.6417 25.6667 21.6667C25.6667 23.6918 24.025 25.3334 22 25.3334H8Z" fill="white"/>
</svg>
