<svg width="32" height="32" viewBox="0 0 32 32" fill="none" xmlns="http://www.w3.org/2000/svg">
<path fill-rule="evenodd" clip-rule="evenodd" d="M14.677 9.6678C13.8914 10.3135 13.2407 11.1207 12.7774 12.0429C12.5207 12.0144 12.2612 12 12 12C9.41075 12 7.14983 13.4058 5.93891 15.4958C4.46784 14.8565 3.29075 13.6678 2.66669 12.1887C3.41306 12.5036 4.23338 12.6777 5.09436 12.6777C8.54614 12.6777 11.3444 9.87945 11.3444 6.42767C11.3444 5.56669 11.1703 4.74637 10.8554 4C13.0743 4.9362 14.6397 7.11699 14.677 9.6678V9.6678Z" fill="white"/>
<path fill-rule="evenodd" clip-rule="evenodd" d="M12 24C9.23858 24 7 21.7614 7 19C7 16.2386 9.23858 14 12 14C12.7395 14 13.4415 14.1605 14.073 14.4487C14.4945 11.9242 16.6892 10 19.3333 10C22.2789 10 24.6667 12.3878 24.6667 15.3333C24.6667 15.9299 24.5687 16.5035 24.3881 17.0391C24.8746 16.8006 25.4216 16.6667 26 16.6667C28.025 16.6667 29.6667 18.3083 29.6667 20.3333C29.6667 22.3584 28.025 24 26 24H12Z" fill="white"/>
</svg>
