<svg width="32" height="32" viewBox="0 0 32 32" fill="none" xmlns="http://www.w3.org/2000/svg">
<path d="M15.6667 24V29.3333C15.6667 29.8856 16.1144 30.3333 16.6667 30.3333C17.219 30.3333 17.6667 29.8856 17.6667 29.3333V24C17.6667 23.4477 17.219 23 16.6667 23C16.1144 23 15.6667 23.4477 15.6667 24Z" fill="white"/>
<path d="M17.9596 26.7071C18.3501 27.0976 18.9833 27.0976 19.3738 26.7071C19.7643 26.3166 19.7643 25.6834 19.3738 25.2929L17.3738 23.2929C16.9833 22.9024 16.3501 22.9024 15.9596 23.2929L13.9596 25.2929C13.5691 25.6834 13.5691 26.3166 13.9596 26.7071C14.3501 27.0976 14.9833 27.0976 15.3738 26.7071L16.6667 25.4142L17.9596 26.7071Z" fill="white"/>
<path fill-rule="evenodd" clip-rule="evenodd" d="M10 18.6667C10 14.9848 12.9848 12 16.6667 12C20.3486 12 23.3333 14.9848 23.3333 18.6667H10Z" fill="white"/>
<path d="M22.9326 6.13751L21.366 9.91959C20.8557 11.1514 19.008 10.3861 19.5182 9.15423L21.0848 5.37215C21.595 4.14031 23.4428 4.90568 22.9326 6.13751Z" fill="white"/>
<path d="M29.9547 14.2421L26.1726 15.8087C24.9408 16.319 24.1754 14.4712 25.4072 13.961L29.1893 12.3944C30.4212 11.8841 31.1865 13.7319 29.9547 14.2421Z" fill="white"/>
<path d="M7.15307 15.8104L3.37099 14.2438C2.13915 13.7336 2.90452 11.8858 4.13636 12.3961L7.91843 13.9627C9.15027 14.4729 8.38491 16.3207 7.15307 15.8104Z" fill="white"/>
<path d="M12.2364 5.37215L13.803 9.15423C14.3133 10.3861 12.4655 11.1514 11.9553 9.91959L10.3887 6.13751C9.87844 4.90568 11.7262 4.14031 12.2364 5.37215Z" fill="white"/>
<path fill-rule="evenodd" clip-rule="evenodd" d="M4 19.6667C4 19.1145 4.44772 18.6667 5 18.6667H28.3333C28.8856 18.6667 29.3333 19.1145 29.3333 19.6667C29.3333 20.219 28.8856 20.6667 28.3333 20.6667H5C4.44772 20.6667 4 20.219 4 19.6667Z" fill="white"/>
</svg>
