<svg width="32" height="32" viewBox="0 0 32 32" fill="none" xmlns="http://www.w3.org/2000/svg">
<path fill-rule="evenodd" clip-rule="evenodd" d="M26.8526 18.368C28.3083 17.7699 29.3333 16.338 29.3333 14.6666C29.3333 12.4575 27.5425 10.6666 25.3333 10.6666C25.3196 10.6666 25.3058 10.6667 25.292 10.6668C25.3193 10.4484 25.3333 10.2258 25.3333 9.99996C25.3333 7.05444 22.9455 4.66663 20 4.66663C17.6665 4.66663 15.6831 6.16519 14.9596 8.25243C14.4469 8.08847 13.9004 7.99996 13.3333 7.99996C10.3878 7.99996 8 10.3878 8 13.3333C8 13.5591 8.01403 13.7816 8.04128 14.0001C8.16019 14.0007 8.27877 14.0042 8.39694 14.0106C9.79472 11.5817 12.41 9.99996 15.3333 9.99996C19.3063 9.99996 22.6029 12.8961 23.227 16.6924C24.6323 16.8226 25.897 17.4373 26.8526 18.368V18.368Z" fill="white"/>
<path fill-rule="evenodd" clip-rule="evenodd" d="M8.00002 26.6667C5.0545 26.6667 2.66669 24.2789 2.66669 21.3333C2.66669 18.3878 5.0545 16 8.00002 16C8.55556 16 9.09126 16.0849 9.59485 16.2425C10.3462 13.7863 12.6311 12 15.3334 12C18.6471 12 21.3334 14.6863 21.3334 18C21.3334 18.3128 21.3094 18.6199 21.2633 18.9198C21.7 18.7561 22.1729 18.6667 22.6667 18.6667C24.8758 18.6667 26.6667 20.4575 26.6667 22.6667C26.6667 24.8758 24.8758 26.6667 22.6667 26.6667H8.00002Z" fill="white"/>
</svg>
