<svg width="32" height="32" viewBox="0 0 32 32" fill="none" xmlns="http://www.w3.org/2000/svg">
<path fill-rule="evenodd" clip-rule="evenodd" d="M16 22.6667C19.6819 22.6667 22.6666 19.6819 22.6666 16C22.6666 12.3181 19.6819 9.33337 16 9.33337C12.3181 9.33337 9.33331 12.3181 9.33331 16C9.33331 19.6819 12.3181 22.6667 16 22.6667Z" fill="white"/>
<path d="M22.2659 3.47089L20.6993 7.25297C20.1891 8.48481 18.3413 7.71944 18.8516 6.4876L20.4182 2.70552C20.9284 1.47368 22.7762 2.23905 22.2659 3.47089Z" fill="white"/>
<path d="M13.1382 25.5071L11.5716 29.2892C11.0613 30.5211 9.21359 29.7557 9.72383 28.5239L11.2904 24.7418C11.8007 23.5099 13.6484 24.2753 13.1382 25.5071Z" fill="white"/>
<path d="M29.288 11.5754L25.5059 13.142C24.2741 13.6522 23.5087 11.8044 24.7406 11.2942L28.5226 9.72761C29.7545 9.21737 30.5198 11.0651 29.288 11.5754Z" fill="white"/>
<path d="M7.25181 20.7031L3.46973 22.2696C2.23789 22.7799 1.47252 20.9321 2.70436 20.4219L6.48644 18.8553C7.71828 18.3451 8.48365 20.1928 7.25181 20.7031Z" fill="white"/>
<path d="M28.5226 22.2716L24.7406 20.705C23.5087 20.1948 24.2741 18.347 25.5059 18.8573L29.288 20.4238C30.5198 20.9341 29.7545 22.7818 28.5226 22.2716Z" fill="white"/>
<path d="M6.48644 13.1438L2.70436 11.5772C1.47252 11.067 2.23789 9.2192 3.46973 9.72945L7.25181 11.296C8.48365 11.8063 7.71828 13.654 6.48644 13.1438Z" fill="white"/>
<path d="M11.5698 2.70552L13.1363 6.4876C13.6466 7.71944 11.7988 8.48481 11.2886 7.25297L9.722 3.47089C9.21175 2.23905 11.0595 1.47368 11.5698 2.70552Z" fill="white"/>
<path d="M20.6975 24.7418L22.2641 28.5239C22.7743 29.7557 20.9266 30.5211 20.4163 29.2892L18.8497 25.5071C18.3395 24.2753 20.1873 23.5099 20.6975 24.7418Z" fill="white"/>
</svg>
