<?xml version="1.0" standalone="no"?>
<!DOCTYPE svg PUBLIC "-//W3C//DTD SVG 20010904//EN"
 "http://www.w3.org/TR/2001/REC-SVG-20010904/DTD/svg10.dtd">
<svg version="1.0" xmlns="http://www.w3.org/2000/svg"
 width="24.000000pt" height="24.000000pt" viewBox="0 0 24.000000 24.000000"
 preserveAspectRatio="xMidYMid meet">

<g transform="translate(0.000000,24.000000) scale(0.100000,-0.100000)"
fill="#000000" stroke="none">
<path d="M37 193 c-4 -6 14 -29 38 -53 l45 -44 45 44 c24 24 42 47 38 53 -3 5
-23 -8 -44 -29 l-39 -38 -39 38 c-21 21 -41 34 -44 29z"/>
<path d="M37 133 c-4 -6 14 -29 38 -53 l45 -44 45 44 c24 24 42 47 38 53 -3 5
-23 -8 -44 -29 l-39 -38 -39 38 c-21 21 -41 34 -44 29z"/>
</g>
</svg>
